<svg width="207" height="65" viewBox="0 0 207 65" fill="none" xmlns="http://www.w3.org/2000/svg">
<g filter="url(#filter0_d_42437_0)">
<path d="M4 22.2284V26.6741H8.25322V22.2284H4Z" fill="black"/>
<path d="M24.1536 7.81699C21.4538 7.81699 19.2717 9.03953 17.9033 10.8178H17.7553V0H14.2418V26.674H17.7553V17.5234C17.7553 13.8557 20.0484 11.2253 23.414 11.2253C26.5946 11.2253 28.4438 13.5964 28.4438 16.7824V26.674H31.9574V16.1526C31.9574 11.0771 28.8137 7.81699 24.1536 7.81699Z" fill="black"/>
<path d="M50.0591 8.3357H41.7377V1.85242H38.2242V8.3357H34.8956V11.744H38.2242V22.0802C38.2242 25.044 39.8885 26.6741 42.8843 26.6741H50.0591V23.2287H43.587C42.4034 23.2287 41.7377 22.5619 41.7377 21.4134V11.744H50.0591V8.3357Z" fill="black"/>
<path d="M75.1582 7.854C72.3471 7.854 70.2023 9.22475 69.0188 11.4106H68.9078C67.8352 9.26182 65.8381 7.854 63.1013 7.854C60.6604 7.854 58.811 9.15065 57.7016 10.966H57.5535V8.33563H54.1881V26.674H57.7016V17.264C57.7016 13.8186 59.5135 11.2994 62.2507 11.2253C64.8394 11.1512 66.3558 13.0036 66.3558 15.7821V26.674H69.8694V16.9676C69.8694 12.8554 72.3104 11.2253 74.4185 11.2253C76.9704 11.2253 78.4869 13.0036 78.4869 15.7821V26.674H82.0001V15.4117C82.0001 10.966 79.4853 7.854 75.1582 7.854Z" fill="black"/>
<path d="M86.7619 21.932C86.7619 24.9328 88.4632 26.674 91.6067 26.674H95.0832V23.2657H92.1245C90.9409 23.2657 90.2751 22.5988 90.2751 21.4504V0H86.7619V21.932Z" fill="black"/>
<path d="M54.0178 34.0079H53.8697C52.4988 32.1664 50.2761 30.8774 47.3119 30.8406C41.8653 30.7669 37.975 34.7813 37.975 40.4531C37.975 46.1617 41.9394 50.1763 47.2748 50.1026C50.3128 50.0656 52.4988 48.703 53.8697 46.7509H54.0178V49.5867H57.501V31.3562H54.0178V34.0079ZM47.7934 46.7143C43.9402 46.7143 41.4948 43.915 41.4948 40.4531C41.4948 36.9911 43.9402 34.1921 47.7934 34.1921C51.5356 34.1921 53.9811 36.9911 53.9811 40.4531C53.9811 43.8784 51.5356 46.7143 47.7934 46.7143Z" fill="black"/>
<path d="M80.5015 37.9855C79.6492 33.8606 75.9813 30.8406 71.1648 30.8406C65.3479 30.8406 61.4576 35.076 61.4576 40.4531C61.4576 45.8301 65.3479 50.1026 71.1648 50.1026C75.9813 50.1026 79.6492 47.0088 80.5015 42.847H76.8336C76.0926 45.1673 73.9066 46.7509 71.2019 46.7509C67.4226 46.7509 64.977 43.915 64.977 40.4531C64.977 36.9911 67.4226 34.1921 71.2019 34.1921C74.0175 34.1921 76.0926 35.8494 76.8336 37.9855H80.5015Z" fill="black"/>
<path d="M99.3185 34.0079H99.1704C97.7995 32.1664 95.5763 30.8774 92.6121 30.8406C87.1657 30.7669 83.2754 34.7813 83.2754 40.4531C83.2754 46.1617 87.24 50.1763 92.575 50.1026C95.6134 50.0656 97.7995 48.703 99.1704 46.7509H99.3185V49.5867H102.801V31.3562H99.3185V34.0079ZM93.094 46.7143C89.2404 46.7143 86.7953 43.915 86.7953 40.4531C86.7953 36.9911 89.2404 34.1921 93.094 34.1921C96.8362 34.1921 99.2814 36.9911 99.2814 40.4531C99.2814 43.8784 96.8362 46.7143 93.094 46.7143Z" fill="black"/>
<path d="M122.801 34.192H122.653C121.282 32.24 118.984 30.8773 116.057 30.8405C110.722 30.7668 106.758 34.7813 106.758 40.4899C106.758 46.1617 110.648 50.1762 116.095 50.1026C118.984 50.0655 121.282 48.7766 122.616 46.9351H122.801V49.5866H126.284V23.0695H122.801V34.192ZM116.576 46.7508C112.723 46.7508 110.278 43.952 110.278 40.4899C110.278 37.0279 112.723 34.2288 116.576 34.2288C120.319 34.2288 122.764 37.0647 122.764 40.4899C122.764 43.952 120.319 46.7508 116.576 46.7508Z" fill="black"/>
<path d="M139.544 30.8406C133.913 30.8406 130.059 35.1496 130.059 40.4899C130.059 45.6828 133.69 50.1026 139.618 50.1026C143.916 50.1026 147.362 47.7823 148.585 43.915H144.917C144.102 45.6462 142.138 46.7509 139.767 46.7509C136.432 46.7509 134.061 44.5412 133.801 41.7053H148.955C149.437 35.6284 145.621 30.8406 139.544 30.8406ZM139.47 34.1921C142.397 34.1921 144.583 35.9967 145.139 38.6116H133.876C134.394 36.0335 136.58 34.1921 139.47 34.1921Z" fill="black"/>
<path d="M173.926 30.8773C171.11 30.8773 168.961 32.24 167.776 34.4129H167.664C166.59 32.2768 164.589 30.8773 161.847 30.8773C159.402 30.8773 157.55 32.1664 156.438 33.971H156.29V31.3561H152.918V49.5866H156.438V40.232C156.438 36.8069 158.254 34.3025 160.996 34.2288C163.589 34.1552 165.108 35.9966 165.108 38.7588V49.5866H168.628V39.9374C168.628 35.8493 171.073 34.2288 173.185 34.2288C175.742 34.2288 177.261 35.9966 177.261 38.7588V49.5866H180.78V38.3905C180.78 33.971 178.261 30.8773 173.926 30.8773Z" fill="black"/>
<path d="M193.381 46.6771L187.083 31.3561H183.192L191.566 51.3179L191.529 51.3915C190.936 52.9014 190.269 53.4539 188.639 53.4539H184.304V56.9525H188.639C191.825 56.9525 193.529 55.5163 194.715 52.4225L202.792 31.3561H199.198L193.381 46.6771Z" fill="black"/>
</g>
<defs>
<filter id="filter0_d_42437_0" x="0" y="0" width="207" height="65" filterUnits="userSpaceOnUse" color-interpolation-filters="sRGB">
<feFlood flood-opacity="0" result="BackgroundImageFix"/>
<feColorMatrix in="SourceAlpha" type="matrix" values="0 0 0 0 0 0 0 0 0 0 0 0 0 0 0 0 0 0 127 0" result="hardAlpha"/>
<feOffset dy="4"/>
<feGaussianBlur stdDeviation="2"/>
<feComposite in2="hardAlpha" operator="out"/>
<feColorMatrix type="matrix" values="0 0 0 0 0 0 0 0 0 0 0 0 0 0 0 0 0 0 0.25 0"/>
<feBlend mode="normal" in2="BackgroundImageFix" result="effect1_dropShadow_42437_0"/>
<feBlend mode="normal" in="SourceGraphic" in2="effect1_dropShadow_42437_0" result="shape"/>
</filter>
</defs>
</svg>
